<svg width="98" height="98" viewBox="0 0 98 98" fill="none" xmlns="http://www.w3.org/2000/svg">
<g clip-path="url(#clip0_64_2886)">
<path d="M95.1211 24.4691C93.8362 21.4382 92.0641 18.6135 89.8537 16.0735C89.3327 15.4751 88.4256 15.4123 87.8274 15.933C87.229 16.4536 87.1662 17.3609 87.6868 17.9593C88.7308 19.1588 89.667 20.4275 90.4891 21.7549C88.9744 21.6789 87.2975 22.0268 85.7214 22.7732C83.5883 23.7835 82.0057 25.3166 81.2094 26.9541C69.1158 13.4145 49.5565 7.55214 31.1352 12.1125C31.0814 8.09062 33.8925 4.45668 37.9461 3.64265C48.6494 1.49393 70.623 3.35867 83.7925 14.1875C84.4056 14.6915 85.3104 14.6031 85.814 13.9905C86.3179 13.3777 86.2296 12.4727 85.617 11.9689C77.578 5.35861 67.3615 2.45023 60.207 1.17471C52.1832 -0.256115 43.4368 -0.389202 37.3809 0.826769C31.5459 1.99831 27.6336 7.52936 28.3459 13.3756C14.1683 27.7342 6.19206 56.8744 2.6847 70.0852C2.48267 70.8464 2.42676 71.7573 2.42676 72.5313V92.3653C2.70768 99.8723 13.4371 99.884 13.7227 92.3653V85.4032C17.3867 87.5565 22.205 84.7414 22.1462 80.4647V73.58C22.1462 73.5344 22.1651 73.493 22.1985 73.4666C25.8994 70.5036 29.6182 67.625 33.2512 64.9104C33.3676 64.8592 33.438 64.8983 33.4626 65.0278V70.8562C33.7463 78.369 44.4745 78.3699 44.7584 70.8562V56.7343C44.7584 56.6848 44.781 56.6399 44.8188 56.614C61.9573 44.8557 76.0934 37.3252 88.0346 33.5927C91.5605 32.5098 97.2135 29.0339 95.1211 24.4691ZM19.558 31.5229C21.7957 27.2049 24.2932 22.9864 27.241 19.1111C31.9808 19.8292 35.4652 23.2405 35.4652 27.294C35.3995 34.8686 24.5126 38.1046 18.6011 33.4129C18.9148 32.7792 19.2338 32.149 19.558 31.5229ZM43.1942 54.2449C42.3751 54.8067 41.8863 55.7372 41.8863 56.7339V70.856C41.8863 72.3996 40.6412 73.6554 39.1106 73.6554C37.58 73.6554 36.3351 72.3996 36.3351 70.856V65.0276C36.3351 62.6663 33.4762 61.1571 31.5319 62.6092C27.8733 65.3429 24.1291 68.2414 20.4032 71.2242C19.6853 71.7987 19.2738 72.6575 19.2738 73.58V80.4647C19.2738 82.0083 18.0287 83.2641 16.4981 83.2641C14.9675 83.2641 13.7225 82.0083 13.7225 80.4647V78.7031C13.7225 77.91 13.0794 77.2669 12.2863 77.2669C11.4931 77.2669 10.8501 77.91 10.8501 78.7031V92.3651C10.8501 93.9087 9.60501 95.1645 8.07461 95.1645C6.54421 95.1645 5.29894 93.9087 5.29894 92.3651C5.35888 91.6334 5.12775 70.8192 5.4822 70.7375C7.85784 61.1045 11.6946 48.1231 17.3367 36.0419C25.1997 41.6993 38.3366 36.9675 38.3374 27.2936C38.3374 22.2926 34.5864 18.0298 29.2752 16.6059C29.888 15.9054 30.3393 15.4424 30.5942 15.1913C38.3088 13.2927 45.764 12.9725 52.7582 14.2406C66.3991 16.3747 76.5123 25.6695 82.1927 32.5761C71.0849 36.778 58.2643 43.9057 43.1942 54.2449ZM89.1818 30.1617C89.1556 30.1742 89.1293 30.1864 89.1031 30.1985L87.4519 30.7575C86.1114 31.0181 84.8849 31.0338 83.9382 30.2893C83.8595 30.1778 83.7507 30.0267 83.6117 29.8402C83.0154 28.4659 84.8692 26.3551 86.9513 25.3691C88.4633 24.6845 90.0136 24.3613 91.4797 24.8341C91.9908 25.0179 92.3357 25.294 92.5051 25.6548C92.5057 25.6559 92.5061 25.6571 92.5067 25.6582C93.1468 27.0316 91.2802 29.1679 89.1818 30.1617Z" fill="white" fill-opacity="0.25"/>
<path d="M41.3634 47.9331C40.2918 48.6404 39.2279 49.3551 38.1739 50.0757C33.7993 42.1004 20.351 41.7605 15.3652 49.4345C14.9251 50.0944 15.1034 50.9862 15.7635 51.426C16.4234 51.8663 17.3151 51.6878 17.755 51.0279C21.64 45.0369 32.4836 45.4115 35.774 51.6782C30.9999 55.0577 26.3342 58.6181 21.8535 62.3784C18.5834 60.9393 16.512 58.125 16.512 55.0303C16.512 54.2371 15.869 53.5941 15.0758 53.5941C14.2827 53.5941 13.6396 54.2371 13.6396 55.0303C13.6396 58.8711 15.8713 62.3618 19.4834 64.4011C17.3695 66.2243 14.7315 68.5261 14.6971 68.5561C14.0994 69.0777 14.0378 69.9848 14.5592 70.5825C15.2158 71.1887 15.8912 71.2345 16.5856 70.7204C24.9922 63.3956 33.6275 56.4809 42.9455 50.33C43.6075 49.893 43.7898 49.0022 43.3528 48.3402C42.9162 47.6786 42.025 47.4959 41.3634 47.9331Z" fill="white" fill-opacity="0.25"/>
<path d="M74.0559 29.9792C73.3952 30.2637 72.7513 30.5444 72.122 30.8221C70.5648 25.6672 65.0428 22.4422 59.6203 22.5008C48.324 22.3823 41.9841 34.8601 50.9076 41.9744C49.819 42.6367 48.6978 43.3275 47.5295 44.0528C46.8557 44.4712 46.6485 45.3567 47.0669 46.0306C47.4794 46.6952 48.379 46.9064 49.0446 46.4932C58.3515 40.7147 64.6381 37.1647 75.1924 32.6175C76.9127 31.8041 75.8268 29.2873 74.0559 29.9792ZM49.5626 33.6937C49.9446 23.5527 66.7964 22.4579 69.4628 31.9808C64.028 34.5185 58.7186 37.3072 53.5255 40.3084C51.0298 38.7341 49.5626 36.3085 49.5626 33.6937Z" fill="white" fill-opacity="0.25"/>
<path d="M20.5012 57.4834C21.2398 57.795 22.108 57.4091 22.393 56.6665C22.9893 54.8598 20.4627 53.9063 19.7088 55.6487C19.4392 56.357 19.7906 57.1994 20.5012 57.4834Z" fill="white" fill-opacity="0.25"/>
<path d="M56.9672 30.8349C57.6428 31.2788 58.5717 31.077 58.9924 30.3832C59.9049 28.7134 57.5877 27.3201 56.5352 28.8985C56.1461 29.545 56.3338 30.4178 56.9672 30.8349Z" fill="white" fill-opacity="0.25"/>
<path d="M64.2322 32.4934C64.9044 32.9359 65.8431 32.735 66.2594 32.0411C67.1536 30.4266 64.948 29.0086 63.8481 30.4835C63.401 31.1403 63.5777 32.0462 64.2322 32.4934Z" fill="white" fill-opacity="0.25"/>
<path d="M26.7553 32.495C27.4018 32.9473 28.338 32.7352 28.7578 32.0806C29.7106 30.4491 27.4738 28.9838 26.3589 30.5054C25.9273 31.1544 26.1008 32.064 26.7553 32.495Z" fill="white" fill-opacity="0.25"/>
<path d="M27.2651 25.132C27.924 25.5663 28.8397 25.3825 29.2675 24.7157C30.221 23.0825 27.9851 21.6189 26.8685 23.1405C26.4321 23.7971 26.6173 24.6903 27.2651 25.132Z" fill="white" fill-opacity="0.25"/>
</g>
<defs>
<clipPath id="clip0_64_2886">
<rect width="98" height="98" fill="white"/>
</clipPath>
</defs>
</svg>
